<?xml version="1.0" encoding="UTF-8" standalone="no"?>
<svg width="29px" height="32px" viewBox="0 0 29 32" version="1.1" xmlns="http://www.w3.org/2000/svg" xmlns:xlink="http://www.w3.org/1999/xlink">
    <!-- Generator: Sketch 44.1 (41455) - http://www.bohemiancoding.com/sketch -->
    <title>avatar 5</title>
    <desc>Created with Sketch.</desc>
    <defs></defs>
    <g id="Page-2-Copy" stroke="none" stroke-width="1" fill="none" fill-rule="evenodd">
        <g id="181" stroke="#979797" transform="translate(-3.000000, 0.000000)">
            <path d="M23,7 C23,3.13400675 19.8659932,0 16,0 C12.1340068,0 9,3.13400675 9,7 C9,10.8659932 12.1340068,14 16,14 C19.8659932,14 23,10.8659932 23,7 L23,7 Z M11,7 C11,4.23857625 13.2385763,2 16,2 C18.7614237,2 21,4.23857625 21,7 C21,9.76142375 18.7614237,12 16,12 C13.2385763,12 11,9.76142375 11,7 L11,7 Z M16.0016135,14 C8.83504285,14 3,19.6024712 3,26.5208645 L3,31 C3,31.5522847 3.44771525,32 4,32 C4.55228475,32 5,31.5522847 5,31 L5,26.5208645 C5,20.7256497 9.92182241,16 16.0016135,16 C17.3223103,16 18.6094757,16.2222643 19.8203399,16.651035 C20.340949,16.8353842 20.9124306,16.5627918 21.0967799,16.0421827 C21.2811291,15.5215737 21.0085367,14.950092 20.4879276,14.7657428 C19.0632005,14.2612426 17.5503059,14 16.0016135,14 L16.0016135,14 Z" id="Oval-74" stroke="none" fill="#95909E" fill-rule="nonzero"></path>
            <path d="M21.0092024,28.8486619 L29.8457709,20.0120934 C30.2297731,19.6280913 30.863699,19.6273303 31.2542233,20.0178546 C31.6474703,20.4111016 31.6455547,21.0407368 31.2560259,21.4302656 L21.3915957,31.2946958 C20.9996184,31.6866731 20.369709,31.6834175 19.9791847,31.2928932 C19.968151,31.2818281 19.9653791,31.2790876 19.9626192,31.2763277 L16.4432982,27.7570067 C16.0526186,27.3663271 16.0531265,26.73367 16.4436508,26.3431458 C16.8368978,25.9498988 17.4671822,25.9524636 17.8575118,26.3427932 L20.6862915,29.1715729 L21.0092024,28.8486619 L21.0092024,28.8486619 Z" id="Rectangle-373" stroke="none" fill="#2A2630" fill-rule="evenodd"></path>
        </g>
    </g>
</svg>