<?xml version="1.0" ?><!DOCTYPE svg  PUBLIC '-//W3C//DTD SVG 1.1//EN'  'http://www.w3.org/Graphics/SVG/1.1/DTD/svg11.dtd'><svg enable-background="new 0 0 128 128" id="Слой_1" version="1.1" viewBox="0 0 128 128" xml:space="preserve" xmlns="http://www.w3.org/2000/svg" xmlns:xlink="http://www.w3.org/1999/xlink"><g><g><g><g><g><path d="M110.4,108.4H15.5c-2.5,0-4.6-2.1-4.6-4.6V35.3c0-2.5,2.1-4.6,4.6-4.6h94.8c2.5,0,4.6,2.1,4.6,4.6v68.5       C114.9,106.4,112.9,108.4,110.4,108.4z" fill="#E0E292"/></g></g></g><g><g opacity="0.2"><g><g><path d="M65.7,75.9c-1.6,1.3-3.9,1.3-5.5,0L10.9,35.1v11.2l43.7,36.3c2.3,1.9,5.3,3,8.3,3s6-1.1,8.3-3        l43.7-36.3V35.1L65.7,75.9z" fill="#0C0F13"/></g></g></g><g><g><g><path d="M110.6,30.7H15.3c-2.4,0-4.3,1.9-4.3,4.3l49.2,40.9c1.6,1.3,3.9,1.3,5.5,0l49.2-40.9        C114.9,32.7,113,30.7,110.6,30.7z" fill="#FFFFFF"/></g></g></g></g></g><g><g><g><path d="M112.7,108.8c-0.6,0-1.1-0.2-1.6-0.5L84,81c-1.4-0.9-1.8-2.7-0.9-4.1c0.9-1.4,2.7-1.8,4.1-0.9l27.1,27.3      c1.4,0.9,1.8,2.7,0.9,4.1C114.6,108.3,113.7,108.8,112.7,108.8z" fill="#454B54"/></g></g></g><g><g><g><path d="M12.4,109.8c-1,0-2-0.5-2.5-1.4c-0.9-1.4-0.5-3.3,0.9-4.1l28.7-28.3c1.4-0.9,3.3-0.5,4.1,0.9      c0.9,1.4,0.5,3.3-0.9,4.1L14,109.3C13.5,109.6,12.9,109.8,12.4,109.8z" fill="#454B54"/></g></g></g><g><g><g><path d="M110.4,110.9H15.5c-4.2,0-7.6-3.4-7.6-7.6V34.7c0-4.2,3.4-7.6,7.6-7.6h94.8c4.2,0,7.6,3.4,7.6,7.6v68.5      C117.9,107.5,114.5,110.9,110.4,110.9z M15.5,33.1c-0.9,0-1.6,0.7-1.6,1.6v68.5c0,0.9,0.7,1.6,1.6,1.6h94.8      c0.9,0,1.6-0.7,1.6-1.6V34.7c0-0.9-0.7-1.6-1.6-1.6H15.5z" fill="#454B54"/></g></g></g><g><g><g><path d="M62.9,79.3c-1.7,0-3.3-0.6-4.7-1.7L9,36.8c-1.3-1.1-1.5-3-0.4-4.2c1.1-1.3,2.9-1.5,4.2-0.4L62.1,73      c0.5,0.4,1.2,0.4,1.7,0l40.3-33.5c1.3-1.1,3.2-0.9,4.2,0.4c1.1,1.3,0.9,3.2-0.4,4.2L67.6,77.6C66.3,78.8,64.6,79.3,62.9,79.3z" fill="#454B54"/></g></g></g></g></svg>